REM DIRINDEX 1\2,1\3,1\4,1\5
REM DIRNAME folder01,folder02,folder03,folder04,folder05
TITLE ""
FILE "171.mp3" MP3
  TRACK 01 AUDIO
    TITLE "0:"
    INDEX 01 00:00:00
  TRACK 02 AUDIO
    TITLE "2:cjc046_5167"
    INDEX 01 00:00:13
  TRACK 03 AUDIO
    TITLE "0:"
    INDEX 01 00:01:28
  TRACK 04 AUDIO
    TITLE "3:cjc046_5168"
    INDEX 01 00:01:46
  TRACK 05 AUDIO
    TITLE "0:"
    INDEX 01 00:03:02
  TRACK 06 AUDIO
    TITLE "4:cjc046_5169"
    INDEX 01 00:03:17
  TRACK 07 AUDIO
    TITLE "0:"
    INDEX 01 00:04:33
  TRACK 08 AUDIO
    TITLE "2:cjc046_5170"
    INDEX 01 00:05:40
  TRACK 09 AUDIO
    TITLE "0:"
    INDEX 01 00:06:61
  TRACK 10 AUDIO
    TITLE "3:cjc046_5171"
    INDEX 01 00:07:02
  TRACK 11 AUDIO
    TITLE "0:"
    INDEX 01 00:08:11
  TRACK 12 AUDIO
    TITLE "4:cjc046_5172"
    INDEX 01 00:08:26
  TRACK 13 AUDIO
    TITLE "0:"
    INDEX 01 00:09:44
  TRACK 14 AUDIO
    TITLE "2:cjc046_5173"
    INDEX 01 00:10:53
  TRACK 15 AUDIO
    TITLE "0:"
    INDEX 01 00:11:64
  TRACK 16 AUDIO
    TITLE "3:cjc046_5174"
    INDEX 01 00:12:11
  TRACK 17 AUDIO
    TITLE "0:"
    INDEX 01 00:13:26
  TRACK 18 AUDIO
    TITLE "4:cjc046_5175"
    INDEX 01 00:13:43
  TRACK 19 AUDIO
    TITLE "0:"
    INDEX 01 00:14:56
  TRACK 20 AUDIO
    TITLE "2:cjc046_5176"
    INDEX 01 00:15:64
  TRACK 21 AUDIO
    TITLE "0:"
    INDEX 01 00:17:10
  TRACK 22 AUDIO
    TITLE "3:cjc046_5177"
    INDEX 01 00:17:31
  TRACK 23 AUDIO
    TITLE "0:"
    INDEX 01 00:18:56
  TRACK 24 AUDIO
    TITLE "4:cjc046_5178"
    INDEX 01 00:18:66
  TRACK 25 AUDIO
    TITLE "0:"
    INDEX 01 00:20:14
  TRACK 26 AUDIO
    TITLE "2:cjc046_5179"
    INDEX 01 00:21:21
  TRACK 27 AUDIO
    TITLE "0:"
    INDEX 01 00:22:46
  TRACK 28 AUDIO
    TITLE "3:cjc046_5180"
    INDEX 01 00:22:64
  TRACK 29 AUDIO
    TITLE "0:"
    INDEX 01 00:24:31
  TRACK 30 AUDIO
    TITLE "4:cjc046_5181"
    INDEX 01 00:24:49
  TRACK 31 AUDIO
    TITLE "0:"
    INDEX 01 00:25:74
  TRACK 32 AUDIO
    TITLE "2:cjc046_5182"
    INDEX 01 00:27:08
  TRACK 33 AUDIO
    TITLE "0:"
    INDEX 01 00:28:08
  TRACK 34 AUDIO
    TITLE "3:cjc046_5183"
    INDEX 01 00:28:27
  TRACK 35 AUDIO
    TITLE "0:"
    INDEX 01 00:29:46
  TRACK 36 AUDIO
    TITLE "4:cjc046_5184"
    INDEX 01 00:29:66
  TRACK 37 AUDIO
    TITLE "0:"
    INDEX 01 00:30:65
  TRACK 38 AUDIO
    TITLE "2:cjc046_5185"
    INDEX 01 00:32:01
  TRACK 39 AUDIO
    TITLE "0:"
    INDEX 01 00:33:22
  TRACK 40 AUDIO
    TITLE "3:cjc046_5186"
    INDEX 01 00:33:40
  TRACK 41 AUDIO
    TITLE "0:"
    INDEX 01 00:35:70
  TRACK 42 AUDIO
    TITLE "4:cjc046_5187"
    INDEX 01 00:36:09
  TRACK 43 AUDIO
    TITLE "0:"
    INDEX 01 00:37:28
  TRACK 44 AUDIO
    TITLE "2:cjc046_5188"
    INDEX 01 00:38:37
  TRACK 45 AUDIO
    TITLE "0:"
    INDEX 01 00:39:52
  TRACK 46 AUDIO
    TITLE "3:cjc046_5189"
    INDEX 01 00:39:74
  TRACK 47 AUDIO
    TITLE "0:"
    INDEX 01 00:41:53
  TRACK 48 AUDIO
    TITLE "4:cjc046_5190"
    INDEX 01 00:41:71
  TRACK 49 AUDIO
    TITLE "0:"
    INDEX 01 00:43:13
  TRACK 50 AUDIO
    TITLE "2:cjc046_5191"
    INDEX 01 00:44:24
  TRACK 51 AUDIO
    TITLE "0:"
    INDEX 01 00:45:47
  TRACK 52 AUDIO
    TITLE "3:cjc046_5192"
    INDEX 01 00:45:65
  TRACK 53 AUDIO
    TITLE "0:"
    INDEX 01 00:47:07
  TRACK 54 AUDIO
    TITLE "4:cjc046_5193"
    INDEX 01 00:47:27
  TRACK 55 AUDIO
    TITLE "0:"
    INDEX 01 00:48:49
  TRACK 56 AUDIO
    TITLE "2:cjc046_5194"
    INDEX 01 00:49:53
  TRACK 57 AUDIO
    TITLE "0:"
    INDEX 01 00:50:68
  TRACK 58 AUDIO
    TITLE "3:cjc046_5195"
    INDEX 01 00:51:13
  TRACK 59 AUDIO
    TITLE "0:"
    INDEX 01 00:52:67
  TRACK 60 AUDIO
    TITLE "4:cjc046_5196"
    INDEX 01 00:53:09
  TRACK 61 AUDIO
    TITLE "0:"
    INDEX 01 00:54:19
  TRACK 62 AUDIO
    TITLE "2:cjc046_5197"
    INDEX 01 00:55:32
  TRACK 63 AUDIO
    TITLE "0:"
    INDEX 01 00:56:37
  TRACK 64 AUDIO
    TITLE "3:cjc046_5198"
    INDEX 01 00:56:57
  TRACK 65 AUDIO
    TITLE "0:"
    INDEX 01 00:57:70
  TRACK 66 AUDIO
    TITLE "4:cjc046_5199"
    INDEX 01 00:58:15
  TRACK 67 AUDIO
    TITLE "0:"
    INDEX 01 00:59:22
  TRACK 68 AUDIO
    TITLE "2:cjc046_5200"
    INDEX 01 01:00:29
  TRACK 69 AUDIO
    TITLE "0:"
    INDEX 01 01:01:46
  TRACK 70 AUDIO
    TITLE "3:cjc046_5201"
    INDEX 01 01:01:64
  TRACK 71 AUDIO
    TITLE "0:"
    INDEX 01 01:02:55
  TRACK 72 AUDIO
    TITLE "4:cjc046_5202"
    INDEX 01 01:02:65
  TRACK 73 AUDIO
    TITLE "0:"
    INDEX 01 01:04:07
  TRACK 74 AUDIO
    TITLE "2:cjc046_5203"
    INDEX 01 01:05:09
  TRACK 75 AUDIO
    TITLE "0:"
    INDEX 01 01:06:08
  TRACK 76 AUDIO
    TITLE "3:cjc046_5204"
    INDEX 01 01:06:26
  TRACK 77 AUDIO
    TITLE "0:"
    INDEX 01 01:07:43
  TRACK 78 AUDIO
    TITLE "4:cjc046_5205"
    INDEX 01 01:07:49
  TRACK 79 AUDIO
    TITLE "0:"
    INDEX 01 01:08:46
  TRACK 80 AUDIO
    TITLE "2:cjc046_5206"
    INDEX 01 01:09:56
  TRACK 81 AUDIO
    TITLE "0:"
    INDEX 01 01:10:59
  TRACK 82 AUDIO
    TITLE "3:cjc046_5207"
    INDEX 01 01:11:07
  TRACK 83 AUDIO
    TITLE "0:"
    INDEX 01 01:12:28
  TRACK 84 AUDIO
    TITLE "4:cjc046_5208"
    INDEX 01 01:12:40
  TRACK 85 AUDIO
    TITLE "0:"
    INDEX 01 01:13:44
  TRACK 86 AUDIO
    TITLE "2:cjc046_5209"
    INDEX 01 01:14:57
  TRACK 87 AUDIO
    TITLE "0:"
    INDEX 01 01:15:64
  TRACK 88 AUDIO
    TITLE "3:cjc046_5210"
    INDEX 01 01:16:12
  TRACK 89 AUDIO
    TITLE "0:"
    INDEX 01 01:17:71
  TRACK 90 AUDIO
    TITLE "4:cjc046_5211"
    INDEX 01 01:18:15
  TRACK 91 AUDIO
    TITLE "0:"
    INDEX 01 01:19:23
  TRACK 92 AUDIO
    TITLE "2:cjc046_5212"
    INDEX 01 01:20:26
  TRACK 93 AUDIO
    TITLE "0:"
    INDEX 01 01:21:35
  TRACK 94 AUDIO
    TITLE "3:cjc046_5213"
    INDEX 01 01:21:51
  TRACK 95 AUDIO
    TITLE "0:"
    INDEX 01 01:23:01
  TRACK 96 AUDIO
    TITLE "4:cjc046_5214"
    INDEX 01 01:23:15
  TRACK 97 AUDIO
    TITLE "0:"
    INDEX 01 01:24:22
